<svg id="visual" viewBox="0 0 900 600" width="900" height="600" xmlns="http://www.w3.org/2000/svg" xmlns:xlink="http://www.w3.org/1999/xlink" version="1.1"><rect x="0" y="0" width="900" height="600" fill="#e5ecef"></rect><path d="M0 430L25 432.5C50 435 100 440 150 439.5C200 439 250 433 300 431.7C350 430.3 400 433.7 450 437.3C500 441 550 445 600 450.2C650 455.3 700 461.7 750 463.7C800 465.7 850 463.3 875 462.2L900 461L900 601L875 601C850 601 800 601 750 601C700 601 650 601 600 601C550 601 500 601 450 601C400 601 350 601 300 601C250 601 200 601 150 601C100 601 50 601 25 601L0 601Z" fill="#0066FF" stroke-linecap="round" stroke-linejoin="miter"></path></svg>